<svg width="437" height="485" viewBox="0 0 437 485" fill="none" xmlns="http://www.w3.org/2000/svg">
<rect x="111" y="126" width="36" height="36" rx="3" fill="#3B82F6"/>
<rect x="36" y="180" width="36" height="36" rx="3" fill="#3B82F6"/>
<rect x="185" y="282" width="36" height="36" rx="3" fill="#3B82F6"/>
<rect y="336" width="36" height="36" rx="3" fill="#3B82F6"/>
<rect x="36" width="36" height="36" rx="3" fill="#93C5FD"/>
<rect x="383" y="162" width="36" height="36" rx="3" fill="#93C5FD"/>
<rect x="383" y="336" width="36" height="36" rx="3" fill="#93C5FD"/>
<rect x="142" y="72" width="36" height="36" rx="3" fill="#93C5FD"/>
<rect x="106" y="180" width="36" height="36" rx="3" fill="#D1FAE5"/>
<rect x="401" y="144" width="36" height="36" rx="3" fill="#D1FAE5"/>
<rect x="54" y="36" width="36" height="36" rx="3" fill="#D1FAE5"/>
<rect x="267" y="449" width="36" height="36" rx="3" fill="#D1FAE5"/>
<rect x="178" y="144" width="36" height="36" rx="3" fill="#D1FAE5"/>
<rect x="70" y="228" width="36" height="36" rx="3" fill="#3B82F6"/>
<rect x="124" y="36" width="36" height="36" rx="3" fill="#A7F3D0"/>
</svg>

